<svg width="48" height="48" viewBox="0 0 48 48" fill="none" xmlns="http://www.w3.org/2000/svg">
<rect width="48" height="48" rx="24" fill="#DCFCE7"/>
<path d="M35.0156 24L32.5781 21.1875L32.9062 17.5312L29.2969 16.6875L27.4219 13.5L24 14.9531L20.5781 13.5L18.7031 16.6875L15.0938 17.4844L15.4219 21.1875L12.9844 24L15.4219 26.7656L15.0938 30.4688L18.7031 31.3125L20.5781 34.5L24 33.0469L27.4219 34.5L29.2969 31.3125L32.9062 30.4688L32.5781 26.8125L35.0156 24ZM31.0312 25.4531L30.4688 26.1094L30.5625 26.9531L30.75 28.9219L28.8281 29.3438L28.0312 29.5312L27.5625 30.2812L26.5781 31.9688L24.7969 31.1719L24 30.8438L23.2031 31.1719L21.4219 31.9688L20.4375 30.2812L20.0156 29.5312L19.1719 29.3438L17.25 28.9219L17.4375 26.9531L17.5312 26.1094L16.9688 25.4531L15.6562 24L16.9688 22.5L17.5312 21.8906L17.4375 21L17.25 19.0781L19.1719 18.6562L19.9688 18.4688L20.4375 17.7188L21.4219 16.0312L23.2031 16.7812L24 17.1562L24.7969 16.7812L26.5781 16.0312L27.5625 17.7188L27.9844 18.4688L28.8281 18.6562L30.75 19.0781L30.5625 21L30.4688 21.8906L31.0312 22.5L32.3438 24L31.0312 25.4531ZM22.0781 25.7344L19.7812 23.4375L18.2812 24.8906L22.0781 28.7344L29.4375 21.375L27.9375 19.875L22.0781 25.7344Z" fill="#16A34A"/>
</svg>
